<svg xmlns="http://www.w3.org/2000/svg" viewBox="0 0 1000 456" width="1000" height="456" role="img" aria-label="Mohamed Hisham - Full-Stack Developer. I build the whole request path: UI, API, payments, database and server.">
<defs><path id="circ" d="M 792,122 a 60,60 0 1,1 120,0 a 60,60 0 1,1 -120,0"/></defs>
<style>
.nd{animation:fl 6s linear infinite}
@keyframes fl{0%,14%{fill:#FFD23F}22%,100%{fill:#FFFFFF}}
.pk{animation:pk 6s linear infinite}
@keyframes pk{0%{transform:translateX(0);opacity:1}80%{transform:translateX(746.0px);opacity:1}88%,100%{transform:translateX(746.0px);opacity:0}}
.dash{animation:ds 1s linear infinite}
@keyframes ds{to{stroke-dashoffset:-10}}
.spin{transform-origin:852px 122px;animation:sp 16s linear infinite}
@keyframes sp{to{transform:rotate(360deg)}}
.bob{animation:bob 3s ease-in-out infinite}
@keyframes bob{50%{transform:translateY(-5px)}}
</style>
<rect x="11" y="11" width="978" height="440" rx="26" fill="#121212"/><rect x="3" y="3" width="978" height="440" rx="26" fill="#FFF8E7" stroke="#121212" stroke-width="3" />
<g transform="rotate(-3 104 50)"><rect x="44" y="34" width="122" height="32" rx="16" fill="#FF6B4A" stroke="#121212" stroke-width="3"/>
<text x="105" y="55" text-anchor="middle" font-family="'Courier New',Consolas,'SF Mono',monospace" font-weight="700" font-size="14" fill="#121212">HELLO, I'M</text></g>
<text x="42" y="132" font-family="'Arial Black','Segoe UI Black','Helvetica Neue',Arial,sans-serif" font-weight="900" font-size="84" fill="#121212" textLength="470" lengthAdjust="spacingAndGlyphs">MOHAMED</text>
<rect x="38" y="146" width="416" height="78" rx="6" fill="#FFD23F" transform="rotate(-1.2 246 185)"/>
<text x="42" y="212" font-family="'Arial Black','Segoe UI Black','Helvetica Neue',Arial,sans-serif" font-weight="900" font-size="84" fill="#121212" textLength="404" lengthAdjust="spacingAndGlyphs">HISHAM</text>
<text x="46" y="256" font-family="'Segoe UI','Helvetica Neue',Arial,sans-serif" font-weight="800" font-size="24" fill="#121212">Full-Stack Developer</text>
<text x="46" y="281" font-family="'Segoe UI','Helvetica Neue',Arial,sans-serif" font-size="15" fill="#333">I build the whole request path: UI, API, payments, database, and the Linux server.</text>
<g class="bob"><g class="spin">
<circle cx="852" cy="122" r="78" fill="#FF6B4A" stroke="#121212" stroke-width="3" transform="translate(5 5)" fill-opacity="0"/>
<circle cx="852" cy="122" r="78" fill="#8EE3B5" stroke="#121212" stroke-width="3"/>
<text font-family="'Courier New',Consolas,'SF Mono',monospace" font-weight="700" font-size="12" letter-spacing=".6" fill="#121212"><textPath href="#circ">OPEN TO FULL-TIME ROLES • INCLUDING RELOCATION • </textPath></text>
<polygon points="852,96 860,114 878,122 860,130 852,148 844,130 826,122 844,114" fill="#121212"/>
</g></g>
<text x="44" y="302" font-family="'Courier New',Consolas,'SF Mono',monospace" font-weight="700" font-size="11" letter-spacing="1.4" fill="#121212">THE REQUEST PATH I BUILD, END TO END</text>
<rect x="48.0" y="316" width="150" height="60" rx="12" fill="#121212"/><rect class="nd" style="animation-delay:0.0s" x="44.0" y="312" width="150" height="60" rx="12" fill="#FFFFFF" stroke="#121212" stroke-width="3"/><text x="119.0" y="337" text-anchor="middle" font-family="'Arial Black','Segoe UI Black','Helvetica Neue',Arial,sans-serif" font-weight="900" font-size="13" fill="#121212">BROWSER</text><text x="119.0" y="357" text-anchor="middle" font-family="'Courier New',Consolas,'SF Mono',monospace" font-weight="700" font-size="11.5" fill="#333">Next.js · React</text><line class="dash" x1="200.0" y1="342.0" x2="218.5" y2="342.0" stroke="#121212" stroke-width="3" stroke-dasharray="5 5"/><polygon points="226.5,342.0 217.5,336.0 217.5,348.0" fill="#121212"/><rect x="234.5" y="316" width="150" height="60" rx="12" fill="#121212"/><rect class="nd" style="animation-delay:1.2s" x="230.5" y="312" width="150" height="60" rx="12" fill="#FFFFFF" stroke="#121212" stroke-width="3"/><text x="305.5" y="337" text-anchor="middle" font-family="'Arial Black','Segoe UI Black','Helvetica Neue',Arial,sans-serif" font-weight="900" font-size="13" fill="#121212">API</text><text x="305.5" y="357" text-anchor="middle" font-family="'Courier New',Consolas,'SF Mono',monospace" font-weight="700" font-size="11.5" fill="#333">Node.js · Express</text><line class="dash" x1="386.5" y1="342.0" x2="405.0" y2="342.0" stroke="#121212" stroke-width="3" stroke-dasharray="5 5"/><polygon points="413.0,342.0 404.0,336.0 404.0,348.0" fill="#121212"/><rect x="421.0" y="316" width="150" height="60" rx="12" fill="#121212"/><rect class="nd" style="animation-delay:2.4s" x="417.0" y="312" width="150" height="60" rx="12" fill="#FFFFFF" stroke="#121212" stroke-width="3"/><text x="492.0" y="337" text-anchor="middle" font-family="'Arial Black','Segoe UI Black','Helvetica Neue',Arial,sans-serif" font-weight="900" font-size="13" fill="#121212">PAYMENTS</text><text x="492.0" y="357" text-anchor="middle" font-family="'Courier New',Consolas,'SF Mono',monospace" font-weight="700" font-size="11.5" fill="#333">Moyasar · Paymob</text><line class="dash" x1="573.0" y1="342.0" x2="591.5" y2="342.0" stroke="#121212" stroke-width="3" stroke-dasharray="5 5"/><polygon points="599.5,342.0 590.5,336.0 590.5,348.0" fill="#121212"/><rect x="607.5" y="316" width="150" height="60" rx="12" fill="#121212"/><rect class="nd" style="animation-delay:3.6s" x="603.5" y="312" width="150" height="60" rx="12" fill="#FFFFFF" stroke="#121212" stroke-width="3"/><text x="678.5" y="337" text-anchor="middle" font-family="'Arial Black','Segoe UI Black','Helvetica Neue',Arial,sans-serif" font-weight="900" font-size="13" fill="#121212">DATABASE</text><text x="678.5" y="357" text-anchor="middle" font-family="'Courier New',Consolas,'SF Mono',monospace" font-weight="700" font-size="11.5" fill="#333">MongoDB</text><line class="dash" x1="759.5" y1="342.0" x2="778.0" y2="342.0" stroke="#121212" stroke-width="3" stroke-dasharray="5 5"/><polygon points="786.0,342.0 777.0,336.0 777.0,348.0" fill="#121212"/><rect x="794.0" y="316" width="150" height="60" rx="12" fill="#121212"/><rect class="nd" style="animation-delay:4.8s" x="790.0" y="312" width="150" height="60" rx="12" fill="#FFFFFF" stroke="#121212" stroke-width="3"/><text x="865.0" y="337" text-anchor="middle" font-family="'Arial Black','Segoe UI Black','Helvetica Neue',Arial,sans-serif" font-weight="900" font-size="13" fill="#121212">SERVER</text><text x="865.0" y="357" text-anchor="middle" font-family="'Courier New',Consolas,'SF Mono',monospace" font-weight="700" font-size="11.5" fill="#333">Linux · Nginx</text>
<line x1="119.0" y1="398" x2="865.0" y2="398" stroke="#121212" stroke-width="3" stroke-linecap="round"/><circle cx="119.0" cy="398" r="5" fill="#FFF8E7" stroke="#121212" stroke-width="3"/><circle cx="305.5" cy="398" r="5" fill="#FFF8E7" stroke="#121212" stroke-width="3"/><circle cx="492.0" cy="398" r="5" fill="#FFF8E7" stroke="#121212" stroke-width="3"/><circle cx="678.5" cy="398" r="5" fill="#FFF8E7" stroke="#121212" stroke-width="3"/><circle cx="865.0" cy="398" r="5" fill="#FFF8E7" stroke="#121212" stroke-width="3"/>
<circle class="pk" cx="119.0" cy="398" r="9" fill="#FF6B4A" stroke="#121212" stroke-width="3"/>
</svg>