<svg xmlns="http://www.w3.org/2000/svg" viewBox="0 0 1000 132" width="1000" height="132" role="img" aria-label="5+ production apps, 2 markets (KSA and Egypt), freelancing since 2024, automated CI/CD deploys"><g transform="rotate(-1.4 119.0 64.0)"><rect x="12" y="20" width="226" height="100" rx="16" fill="#121212"/><rect x="6" y="14" width="226" height="100" rx="16" fill="#FFD23F" stroke="#121212" stroke-width="3" /><text x="26" y="70" font-family="'Arial Black','Segoe UI Black','Helvetica Neue',Arial,sans-serif" font-weight="900" font-size="44" fill="#121212">5+</text><text x="26" y="96" font-family="'Courier New',Consolas,'SF Mono',monospace" font-weight="700" font-size="11.5" letter-spacing="1" fill="#121212">PRODUCTION APPS</text></g><g transform="rotate(1.0 369.0 64.0)"><rect x="262" y="20" width="226" height="100" rx="16" fill="#121212"/><rect x="256" y="14" width="226" height="100" rx="16" fill="#8EE3B5" stroke="#121212" stroke-width="3" /><text x="276" y="70" font-family="'Arial Black','Segoe UI Black','Helvetica Neue',Arial,sans-serif" font-weight="900" font-size="44" fill="#121212">2</text><text x="276" y="96" font-family="'Courier New',Consolas,'SF Mono',monospace" font-weight="700" font-size="11.5" letter-spacing="1" fill="#121212">MARKETS: KSA + EGYPT</text></g><g transform="rotate(-0.8 619.0 64.0)"><rect x="512" y="20" width="226" height="100" rx="16" fill="#121212"/><rect x="506" y="14" width="226" height="100" rx="16" fill="#7CC7FF" stroke="#121212" stroke-width="3" /><text x="526" y="70" font-family="'Arial Black','Segoe UI Black','Helvetica Neue',Arial,sans-serif" font-weight="900" font-size="44" fill="#121212">2024</text><text x="526" y="96" font-family="'Courier New',Consolas,'SF Mono',monospace" font-weight="700" font-size="11.5" letter-spacing="1" fill="#121212">FREELANCING SINCE</text></g><g transform="rotate(1.3 869.0 64.0)"><rect x="762" y="20" width="226" height="100" rx="16" fill="#121212"/><rect x="756" y="14" width="226" height="100" rx="16" fill="#FF6B4A" stroke="#121212" stroke-width="3" /><text x="776" y="70" font-family="'Arial Black','Segoe UI Black','Helvetica Neue',Arial,sans-serif" font-weight="900" font-size="44" fill="#121212">CI/CD</text><text x="776" y="96" font-family="'Courier New',Consolas,'SF Mono',monospace" font-weight="700" font-size="11.5" letter-spacing="1" fill="#121212">AUTOMATED DEPLOYS</text></g></svg>